<svg xmlns="http://www.w3.org/2000/svg" xmlns:xlink="http://www.w3.org/1999/xlink" width="500" zoomAndPan="magnify" viewBox="0 0 375 374.999991" height="500" preserveAspectRatio="xMidYMid meet" version="1.2"><defs><clipPath id="460932d40b"><path d="M 115 174 L 138 174 L 138 208.042969 L 115 208.042969 Z M 115 174 "/></clipPath><clipPath id="3629647015"><path d="M 237 174 L 260 174 L 260 208.042969 L 237 208.042969 Z M 237 174 "/></clipPath><clipPath id="7888c1991c"><path d="M 112.5 97.042969 L 262.5 97.042969 L 262.5 196 L 112.5 196 Z M 112.5 97.042969 "/></clipPath></defs><g id="dcc574b953"><path style=" stroke:none;fill-rule:nonzero;fill:#000000;fill-opacity:1;" d="M 263.753906 7.132812 L 262.367188 8.585938 L 256.554688 14.398438 C 256.617188 14.335938 256.683594 14.273438 256.746094 14.273438 C 256.429688 14.652344 256.429688 15.347656 256.683594 16.230469 L 255.925781 16.992188 C 254.914062 16.738281 254.15625 16.863281 253.648438 17.308594 L 252.199219 18.761719 L 249.292969 21.667969 C 249.355469 21.605469 249.417969 21.539062 249.480469 21.539062 C 249.167969 21.917969 249.167969 22.613281 249.417969 23.5 L 248.660156 24.257812 C 247.648438 24.003906 246.890625 24.132812 246.386719 24.574219 L 242.027344 28.933594 C 242.09375 28.871094 242.15625 28.808594 242.21875 28.808594 C 241.902344 29.1875 241.902344 29.882812 242.15625 30.765625 L 241.902344 31.019531 C 240.890625 30.765625 240.132812 30.894531 239.628906 31.335938 L 200.40625 70.578125 C 198.195312 72.789062 209.058594 86.3125 223.207031 101.351562 C 213.859375 110.261719 199.964844 123.59375 187.332031 135.09375 C 174.699219 123.59375 160.742188 110.324219 151.269531 101.160156 C 165.417969 86.183594 176.28125 72.660156 174.070312 70.386719 L 134.847656 31.144531 C 134.40625 30.703125 133.648438 30.578125 132.574219 30.828125 L 132.320312 30.578125 C 132.574219 29.691406 132.574219 28.996094 132.257812 28.617188 C 132.320312 28.679688 132.382812 28.679688 132.449219 28.746094 L 130.996094 27.289062 L 128.089844 24.382812 C 127.648438 23.941406 126.890625 23.816406 125.816406 24.066406 L 125.058594 23.308594 C 125.308594 22.425781 125.308594 21.730469 124.996094 21.351562 C 125.058594 21.414062 125.121094 21.414062 125.183594 21.476562 L 120.824219 17.117188 C 120.382812 16.675781 119.625 16.546875 118.550781 16.800781 L 117.792969 16.042969 C 118.046875 15.15625 118.046875 14.464844 117.730469 14.082031 C 117.792969 14.148438 117.859375 14.148438 117.921875 14.210938 L 113.6875 9.976562 L 112.300781 8.585938 L 110.847656 7.132812 C 103.960938 0.246094 28.675781 75.570312 35.5625 82.457031 L 37.011719 83.910156 L 42.824219 89.722656 C 42.761719 89.660156 42.699219 89.597656 42.699219 89.535156 C 43.140625 89.851562 43.898438 89.851562 45.035156 89.46875 L 45.539062 89.976562 C 45.222656 91.175781 45.222656 92.125 45.792969 92.628906 L 50.152344 96.988281 C 50.085938 96.925781 50.023438 96.863281 50.023438 96.800781 C 50.464844 97.117188 51.222656 97.117188 52.359375 96.738281 L 52.867188 97.242188 C 52.550781 98.445312 52.550781 99.390625 53.117188 99.898438 L 57.476562 104.257812 C 57.414062 104.195312 57.351562 104.128906 57.351562 104.066406 C 57.792969 104.382812 58.550781 104.382812 59.6875 104.003906 C 59.371094 105.203125 59.371094 106.152344 59.941406 106.660156 L 99.164062 145.898438 C 101.4375 148.113281 115.203125 136.988281 130.363281 122.644531 C 139.015625 131.617188 151.332031 144.574219 162.386719 156.640625 C 144.195312 170.101562 128.53125 179.390625 123.480469 179.832031 C 122.089844 179.960938 120.574219 179.074219 118.996094 177.8125 L 121.203125 175.597656 C 121.960938 174.839844 121.960938 173.515625 121.203125 172.757812 L 116.847656 168.394531 C 116.089844 167.636719 114.761719 167.636719 114.003906 168.394531 L 111.476562 170.921875 C 109.457031 169.40625 107.625 168.773438 106.171875 170.226562 C 101.816406 174.589844 64.363281 212.0625 64.363281 212.0625 C 64.363281 212.0625 59.878906 215.664062 63.035156 219.390625 L 60.191406 222.234375 C 59.433594 222.992188 59.433594 224.320312 60.191406 225.078125 L 64.550781 229.4375 C 65.308594 230.195312 66.636719 230.195312 67.394531 229.4375 L 69.289062 227.542969 C 71.054688 230.511719 72.445312 233.796875 72.949219 237.148438 C 73.835938 243.53125 76.488281 252.441406 84.066406 260.71875 C 84.128906 260.78125 84.195312 260.90625 84.257812 260.96875 C 84.445312 261.160156 84.699219 261.347656 84.886719 261.539062 C 85.078125 261.730469 85.265625 261.980469 85.457031 262.171875 C 85.519531 262.234375 85.582031 262.296875 85.710938 262.359375 C 93.984375 269.941406 102.890625 272.597656 109.269531 273.480469 C 112.550781 273.925781 115.898438 275.378906 118.867188 277.148438 L 116.972656 279.042969 C 116.214844 279.800781 116.214844 281.128906 116.972656 281.886719 L 121.332031 286.246094 C 122.089844 287.003906 123.414062 287.003906 124.171875 286.246094 L 127.015625 283.402344 C 130.742188 286.5625 134.34375 282.074219 134.34375 282.074219 C 134.34375 282.074219 171.859375 244.539062 176.152344 240.242188 C 177.605469 238.789062 176.910156 236.957031 175.457031 234.9375 L 177.984375 232.40625 C 178.742188 231.648438 178.742188 230.324219 177.984375 229.5625 L 173.628906 225.203125 C 172.871094 224.445312 171.542969 224.445312 170.785156 225.203125 L 168.574219 227.414062 C 167.3125 225.835938 166.425781 224.320312 166.554688 222.929688 C 166.996094 218.125 175.332031 203.78125 187.710938 186.785156 C 200.027344 203.78125 208.429688 218.125 208.871094 222.929688 C 208.996094 224.320312 208.113281 225.835938 206.847656 227.414062 L 204.636719 225.203125 C 203.878906 224.445312 202.554688 224.445312 201.796875 225.203125 L 197.4375 229.5625 C 196.679688 230.324219 196.679688 231.648438 197.4375 232.40625 L 199.964844 234.9375 C 198.449219 236.957031 197.816406 238.789062 199.269531 240.242188 C 203.628906 244.605469 241.082031 282.074219 241.082031 282.074219 C 241.082031 282.074219 244.683594 286.5625 248.40625 283.402344 L 251.25 286.246094 C 252.007812 287.003906 253.335938 287.003906 254.09375 286.246094 L 258.449219 281.886719 C 259.207031 281.128906 259.207031 279.800781 258.449219 279.042969 L 256.554688 277.148438 C 259.523438 275.378906 262.808594 273.988281 266.15625 273.480469 C 272.535156 272.597656 281.441406 269.941406 289.714844 262.359375 C 289.777344 262.296875 289.902344 262.234375 289.96875 262.171875 C 290.15625 261.980469 290.347656 261.730469 290.535156 261.539062 C 290.726562 261.347656 290.976562 261.160156 291.167969 260.96875 C 291.230469 260.90625 291.292969 260.84375 291.355469 260.71875 C 298.9375 252.441406 301.589844 243.53125 302.472656 237.148438 C 302.914062 233.863281 304.367188 230.511719 306.136719 227.542969 L 308.03125 229.4375 C 308.789062 230.195312 310.113281 230.195312 310.871094 229.4375 L 315.230469 225.078125 C 315.988281 224.320312 315.988281 222.992188 315.230469 222.234375 L 312.386719 219.390625 C 315.546875 215.664062 311.0625 212.0625 311.0625 212.0625 C 311.0625 212.0625 273.546875 174.523438 269.25 170.226562 C 267.796875 168.773438 265.964844 169.46875 263.945312 170.921875 L 261.417969 168.394531 C 260.660156 167.636719 259.335938 167.636719 258.578125 168.394531 L 254.21875 172.757812 C 253.460938 173.515625 253.460938 174.839844 254.21875 175.597656 L 256.429688 177.8125 C 254.851562 179.074219 253.335938 179.960938 251.945312 179.832031 C 246.890625 179.390625 231.230469 170.101562 213.039062 156.640625 C 224.089844 144.574219 236.40625 131.617188 245.0625 122.644531 C 260.21875 136.988281 273.988281 148.113281 276.261719 145.898438 L 315.484375 106.660156 C 315.988281 106.152344 316.050781 105.269531 315.734375 104.003906 C 316.808594 104.382812 317.628906 104.382812 318.074219 104.066406 C 318.011719 104.128906 318.011719 104.195312 317.945312 104.257812 L 322.304688 99.898438 C 322.808594 99.390625 322.875 98.507812 322.558594 97.242188 L 323.0625 96.738281 C 324.136719 97.117188 324.957031 97.117188 325.398438 96.800781 C 325.335938 96.863281 325.335938 96.925781 325.273438 96.992188 L 326.726562 95.535156 L 329.632812 92.628906 C 330.136719 92.125 330.199219 91.238281 329.882812 89.976562 L 330.390625 89.46875 C 331.460938 89.851562 332.285156 89.851562 332.726562 89.535156 C 332.664062 89.597656 332.664062 89.660156 332.597656 89.722656 L 339.863281 82.457031 C 345.925781 75.570312 270.703125 0.246094 263.753906 7.132812 Z M 116.089844 87.699219 C 114.761719 89.027344 112.867188 89.40625 111.164062 88.902344 C 110.65625 87.195312 111.035156 85.300781 112.363281 83.972656 C 113.6875 82.644531 115.582031 82.265625 117.289062 82.773438 C 117.792969 84.542969 117.414062 86.4375 116.089844 87.699219 Z M 135.605469 249.214844 C 124.425781 257.8125 108.574219 257.242188 98.59375 247.257812 C 88.613281 237.273438 87.984375 221.414062 96.636719 210.226562 C 107.816406 201.632812 123.667969 202.203125 133.648438 212.1875 C 143.625 222.171875 144.195312 238.03125 135.605469 249.214844 Z M 240.957031 212.1875 C 250.933594 202.203125 266.789062 201.570312 277.964844 210.226562 C 286.554688 221.414062 285.988281 237.273438 276.007812 247.257812 C 266.03125 257.242188 250.175781 257.875 238.996094 249.214844 C 230.40625 238.03125 231.039062 222.171875 240.957031 212.1875 Z M 263.441406 88.902344 C 261.734375 89.40625 259.839844 89.027344 258.511719 87.703125 C 257.1875 86.375 256.808594 84.476562 257.3125 82.773438 C 259.019531 82.265625 260.914062 82.644531 262.238281 83.972656 C 263.503906 85.300781 263.945312 87.195312 263.441406 88.902344 Z M 263.441406 88.902344 "/><path style=" stroke:none;fill-rule:nonzero;fill:#ffffff;fill-opacity:1;" d="M 190.933594 138.316406 C 190.617188 138 190.238281 137.683594 189.921875 137.433594 C 190.617188 136.800781 191.375 136.105469 192.070312 135.472656 C 212.027344 117.402344 227.628906 103.5625 227.882812 103.308594 C 227.882812 103.308594 212.976562 118.410156 193.015625 136.484375 C 192.324219 137.117188 191.628906 137.75 190.933594 138.316406 Z M 145.269531 193.355469 L 151.394531 199.484375 C 155.121094 203.214844 161.246094 202.960938 164.847656 198.917969 L 182.089844 179.515625 C 181.460938 178.757812 180.828125 177.9375 180.132812 177.054688 C 165.480469 192.28125 156.195312 198.664062 145.710938 192.722656 C 145.332031 192.535156 144.953125 193.039062 145.269531 193.355469 Z M 224.851562 79.171875 L 249.546875 54.460938 C 252.070312 51.933594 256.050781 51.554688 258.511719 53.703125 C 270.070312 63.5625 280.808594 74.304688 290.472656 85.679688 C 292.554688 88.144531 292.242188 92.125 289.714844 94.652344 L 265.082031 119.296875 C 254.914062 106.152344 237.988281 89.21875 224.851562 79.171875 Z M 252.890625 93.324219 C 257.882812 98.316406 265.964844 98.316406 270.957031 93.324219 C 275.945312 88.332031 275.945312 80.246094 270.957031 75.253906 C 265.964844 70.261719 257.882812 70.261719 252.890625 75.253906 C 247.902344 80.246094 247.902344 88.394531 252.890625 93.324219 Z M 202.363281 71.144531 L 203.25 70.261719 C 205.460938 68.050781 212.027344 71.398438 220.367188 77.652344 L 247.207031 50.796875 C 250.367188 47.636719 255.480469 47.449219 258.828125 50.355469 C 272.09375 61.730469 284.410156 74.113281 295.589844 87.132812 C 298.492188 90.480469 298.304688 95.601562 295.144531 98.757812 L 268.367188 125.550781 C 274.746094 134.082031 278.21875 140.78125 276.007812 142.992188 L 275.125 143.878906 C 283.523438 135.472656 210.765625 62.675781 202.363281 71.144531 Z M 221.503906 78.476562 C 236.28125 89.785156 256.175781 109.628906 267.546875 124.476562 L 294.199219 97.8125 C 296.851562 95.15625 297.039062 90.859375 294.578125 88.015625 C 283.460938 75.0625 271.144531 62.742188 257.945312 51.367188 C 255.101562 48.902344 250.808594 49.089844 248.15625 51.746094 Z M 204.828125 150.386719 C 205.460938 150.890625 206.089844 151.398438 206.660156 151.902344 L 238.367188 116.328125 C 225.164062 128.902344 214.175781 140.339844 204.828125 150.386719 Z M 303.609375 86.121094 C 290.472656 70.449219 275.882812 55.851562 260.21875 42.710938 C 256.554688 39.613281 252.578125 36.644531 248.535156 33.988281 C 248.027344 33.671875 245.820312 32.410156 245.1875 32.09375 C 246.007812 32.597656 247.585938 33.546875 248.472656 34.050781 C 252.449219 36.769531 256.304688 39.867188 259.964844 42.960938 C 275.441406 56.296875 289.96875 70.828125 303.292969 86.3125 C 306.199219 89.785156 309.167969 93.453125 311.757812 97.242188 C 312.390625 98.128906 313.527344 100.148438 314.15625 101.160156 C 313.527344 100.085938 312.578125 98.253906 311.820312 97.179688 C 309.355469 93.324219 306.515625 89.597656 303.609375 86.121094 Z M 253.839844 92.378906 C 249.417969 87.953125 249.417969 80.6875 253.839844 76.199219 C 258.261719 71.777344 265.523438 71.777344 270.007812 76.199219 C 274.492188 80.625 274.429688 87.890625 270.007812 92.378906 C 265.523438 96.863281 258.261719 96.863281 253.839844 92.378906 Z M 269.566406 81.382812 C 269.0625 80.371094 268.367188 79.488281 267.292969 78.917969 C 269.378906 82.265625 269.3125 86.375 267.292969 89.722656 C 268.304688 89.15625 269.0625 88.269531 269.566406 87.257812 C 269.25 88.394531 268.746094 89.40625 268.113281 90.542969 C 269.378906 89.785156 270.199219 88.648438 270.765625 87.320312 C 270.386719 88.710938 269.820312 90.101562 268.933594 91.304688 C 273.671875 88.269531 273.671875 80.308594 268.933594 77.273438 C 269.820312 78.539062 270.386719 79.929688 270.765625 81.320312 C 270.261719 79.992188 269.378906 78.855469 268.113281 78.097656 C 268.746094 79.171875 269.25 80.246094 269.566406 81.382812 Z M 257.503906 79.867188 C 255.039062 82.328125 255.039062 86.246094 257.503906 88.710938 C 259.964844 91.175781 263.882812 91.175781 266.34375 88.710938 C 268.808594 86.246094 268.808594 82.328125 266.34375 79.867188 C 263.882812 77.464844 259.964844 77.464844 257.503906 79.867188 Z M 254.914062 91.304688 C 254.03125 90.039062 253.460938 88.648438 253.082031 87.257812 C 253.585938 88.585938 254.472656 89.722656 255.734375 90.480469 C 255.101562 89.46875 254.597656 88.332031 254.28125 87.195312 C 254.789062 88.207031 255.480469 89.089844 256.554688 89.660156 C 254.472656 86.3125 254.535156 82.203125 256.554688 78.855469 C 255.546875 79.421875 254.789062 80.308594 254.28125 81.320312 C 254.597656 80.179688 255.101562 79.171875 255.734375 78.03125 C 254.472656 78.792969 253.648438 79.929688 253.082031 81.253906 C 253.460938 79.867188 254.03125 78.476562 254.914062 77.210938 C 250.175781 80.308594 250.175781 88.269531 254.914062 91.304688 Z M 210.261719 153.734375 C 228.324219 133.765625 242.21875 118.097656 242.472656 117.84375 C 242.472656 117.84375 227.3125 132.820312 209.25 152.789062 C 209.058594 153.039062 208.871094 153.230469 208.617188 153.484375 C 208.996094 153.796875 209.375 154.050781 209.691406 154.304688 C 209.945312 154.113281 210.070312 153.925781 210.261719 153.734375 Z M 281.566406 64.636719 C 305.1875 88.269531 314.789062 102.742188 314.03125 105.457031 L 314.03125 105.519531 L 277.839844 141.730469 L 277.964844 140.71875 C 278.15625 139.011719 277.019531 135.09375 270.324219 126.121094 L 270.136719 125.867188 L 296.914062 99.074219 C 300.074219 95.914062 300.261719 90.734375 297.355469 87.320312 C 285.609375 73.671875 272.597656 60.59375 258.640625 48.585938 C 255.230469 45.617188 250.050781 45.804688 246.890625 48.964844 L 220.050781 75.820312 L 219.796875 75.632812 C 211.019531 69.058594 207.164062 67.984375 205.523438 68.175781 L 204.511719 68.300781 L 240.703125 32.09375 L 240.765625 32.09375 C 243.480469 31.398438 257.945312 41.003906 281.566406 64.636719 Z M 212.15625 69.753906 L 246.578125 35.316406 C 245.503906 34.621094 244.429688 33.988281 243.355469 33.484375 L 208.742188 68.113281 C 209.691406 68.492188 210.828125 68.996094 212.15625 69.753906 C 212.089844 69.753906 212.15625 69.753906 212.15625 69.753906 Z M 257.1875 43.152344 C 255.988281 42.140625 254.722656 41.191406 253.523438 40.246094 C 252.132812 39.171875 250.871094 38.285156 249.546875 37.273438 L 215.25 71.585938 C 216.890625 72.660156 218.46875 73.800781 220.050781 74.9375 C 222.386719 73.230469 247.902344 45.425781 250.554688 46.183594 C 250.554688 46.183594 253.335938 43.40625 253.335938 43.40625 C 253.902344 42.582031 255.355469 42.644531 257.1875 43.152344 Z M 303.292969 89.34375 L 300.136719 92.503906 C 300.261719 95.09375 299.316406 97.75 297.484375 99.582031 L 271.082031 125.996094 C 273.734375 129.597656 276.449219 133.324219 278.09375 137.496094 L 312.703125 102.867188 C 310.242188 98.066406 306.703125 93.578125 303.292969 89.34375 Z M 295.273438 83.910156 C 296.347656 85.171875 297.546875 86.375 298.492188 87.765625 C 298.683594 88.082031 298.871094 88.332031 299.0625 88.648438 L 301.082031 86.625 C 300.261719 85.679688 299.441406 84.667969 298.492188 83.65625 C 297.546875 82.582031 296.597656 81.507812 295.589844 80.371094 C 296.03125 82.015625 295.96875 83.277344 295.273438 83.910156 Z M 320.789062 77.402344 C 323.316406 80.625 325.839844 83.910156 327.800781 87.511719 C 325.90625 83.847656 323.503906 80.496094 320.976562 77.210938 C 313.398438 67.480469 304.9375 58.445312 296.28125 49.660156 C 287.503906 41.003906 278.472656 32.535156 268.746094 24.953125 C 265.460938 22.488281 262.113281 20.023438 258.449219 18.191406 C 262.113281 20.085938 265.398438 22.613281 268.617188 25.140625 C 278.28125 32.851562 287.25 41.320312 295.96875 49.976562 C 304.621094 58.761719 313.082031 67.734375 320.789062 77.402344 Z M 305.441406 84.226562 C 292.304688 68.554688 277.714844 53.957031 262.050781 40.8125 C 258.386719 37.71875 254.410156 34.746094 250.367188 32.09375 C 249.859375 31.777344 247.648438 30.511719 247.019531 30.199219 C 247.839844 30.703125 249.417969 31.652344 250.304688 32.15625 C 254.28125 34.875 258.132812 37.96875 261.796875 41.066406 C 277.273438 54.398438 291.796875 68.933594 305.125 84.414062 C 308.03125 87.890625 311 91.554688 313.589844 95.347656 C 314.21875 96.230469 315.355469 98.253906 315.988281 99.265625 C 315.355469 98.191406 314.410156 96.359375 313.652344 95.285156 C 311.25 91.492188 308.347656 87.765625 305.441406 84.226562 Z M 173.121094 236.011719 C 170.34375 233.355469 167.691406 230.636719 165.417969 227.542969 C 164.34375 226.027344 163.332031 224.445312 163.078125 222.550781 C 163.207031 227.542969 168.636719 233.167969 171.984375 236.703125 C 172.363281 237.085938 172.804688 237.527344 172.804688 238.09375 C 172.871094 238.410156 172.617188 238.601562 172.425781 238.789062 L 171.921875 239.296875 C 166.300781 244.917969 160.742188 250.605469 155.5625 256.671875 C 161.5625 251.429688 167.3125 245.929688 172.933594 240.308594 C 172.933594 240.308594 173.4375 239.800781 173.4375 239.800781 C 174.636719 238.726562 174.195312 236.957031 173.121094 236.011719 Z M 288.007812 58.191406 C 311.628906 81.824219 321.230469 96.296875 320.472656 99.011719 L 320.472656 99.074219 L 318.515625 101.035156 L 318.324219 100.527344 C 317.25 97.558594 314.597656 93.453125 310.242188 87.890625 C 304.242188 80.179688 295.460938 70.511719 285.546875 60.59375 C 275.628906 50.671875 265.964844 41.886719 258.261719 35.882812 C 252.703125 31.523438 248.597656 28.933594 245.628906 27.796875 L 245.125 27.605469 L 247.082031 25.648438 L 247.144531 25.648438 C 249.925781 24.953125 264.386719 34.558594 288.007812 58.191406 Z M 252.957031 28.871094 C 251.882812 28.175781 250.808594 27.542969 249.734375 27.039062 L 248.40625 28.363281 C 249.480469 28.933594 250.429688 29.503906 251.628906 30.261719 Z M 263.375 36.578125 C 262.238281 35.632812 261.039062 34.683594 259.902344 33.800781 C 258.511719 32.726562 257.25 31.839844 255.925781 30.828125 L 254.535156 32.21875 C 256.429688 33.609375 258.324219 35.0625 260.15625 36.515625 C 260.851562 36.011719 261.925781 36.074219 263.375 36.578125 Z M 308.285156 84.351562 C 311.628906 88.460938 315.355469 93.199219 317.820312 97.75 L 319.148438 96.421875 C 316.683594 91.617188 313.082031 87.195312 309.734375 82.898438 Z M 302.09375 77.085938 C 303.484375 78.664062 304.808594 80.179688 306.074219 81.636719 L 307.523438 80.179688 C 306.703125 79.234375 305.882812 78.222656 304.9375 77.210938 C 304.050781 76.199219 303.167969 75.1875 302.21875 74.113281 C 302.597656 75.378906 302.597656 76.328125 302.21875 76.957031 Z M 172.363281 226.027344 C 172.113281 225.773438 171.734375 225.773438 171.480469 226.027344 L 174.195312 229.628906 L 170.59375 226.910156 L 170.46875 227.035156 C 169.773438 227.730469 169.710938 228.933594 170.34375 229.691406 L 172.679688 232.34375 C 173.4375 233.167969 174.699219 233.230469 175.523438 232.40625 L 176.722656 231.207031 C 176.976562 230.953125 176.976562 230.574219 176.722656 230.324219 Z M 289.210938 56.992188 C 280.492188 48.398438 271.523438 39.929688 261.796875 32.410156 C 259.714844 30.765625 257.125 28.996094 254.914062 27.542969 C 254.410156 27.226562 252.199219 25.964844 251.566406 25.648438 C 252.261719 26.089844 254.09375 27.164062 254.851562 27.605469 C 256.996094 29.125 259.585938 30.957031 261.609375 32.597656 C 271.207031 40.246094 280.113281 48.710938 288.765625 57.304688 C 298.113281 66.722656 307.273438 76.390625 315.355469 86.878906 C 317.1875 89.34375 318.957031 91.871094 320.472656 94.527344 C 319.019531 91.871094 317.316406 89.28125 315.484375 86.753906 C 307.652344 76.136719 298.492188 66.40625 289.210938 56.992188 Z M 338.09375 81.382812 L 338.09375 81.445312 L 333.292969 86.246094 L 333.105469 85.742188 C 332.03125 82.773438 329.378906 78.664062 325.019531 73.105469 C 319.019531 65.457031 310.242188 55.789062 300.324219 45.867188 C 290.410156 35.949219 280.746094 27.164062 273.039062 21.160156 C 267.480469 16.800781 263.375 14.210938 260.410156 13.074219 L 259.964844 12.882812 L 264.765625 8.082031 L 264.828125 8.082031 C 267.546875 7.324219 282.007812 16.925781 305.628906 40.5625 C 329.253906 64.195312 338.851562 78.664062 338.09375 81.382812 Z M 266.34375 15.472656 L 270.578125 11.242188 C 269.503906 10.546875 268.429688 9.914062 267.355469 9.40625 L 263.125 13.640625 C 264.261719 14.148438 265.207031 14.714844 266.34375 15.472656 Z M 282.640625 20.277344 C 280.933594 18.886719 279.230469 17.496094 277.523438 16.167969 C 276.136719 15.09375 274.871094 14.210938 273.546875 13.199219 L 269.25 17.496094 C 271.273438 18.949219 273.292969 20.464844 275.25 22.046875 C 276.199219 19.203125 279.546875 19.265625 282.640625 20.277344 Z M 320.789062 66.910156 L 325.082031 62.613281 C 324.261719 61.667969 323.441406 60.65625 322.492188 59.644531 C 321.230469 58.191406 319.777344 56.546875 318.390625 55.03125 C 319.652344 58.886719 319.019531 60.84375 316.429688 62.046875 C 316.558594 62.171875 316.621094 62.296875 316.746094 62.425781 C 318.199219 63.878906 319.527344 65.457031 320.789062 66.910156 Z M 336.769531 78.792969 C 334.304688 73.988281 330.703125 69.566406 327.359375 65.269531 L 323.0625 69.566406 C 323.503906 70.070312 323.945312 70.640625 324.324219 71.144531 C 327.230469 74.808594 330.453125 79.042969 332.601562 82.960938 Z M 299.628906 46.753906 C 292.367188 39.550781 284.914062 32.535156 277.019531 25.964844 C 272.34375 22.046875 267.417969 18.253906 262.050781 15.285156 C 267.355469 18.316406 272.15625 22.234375 276.828125 26.214844 C 284.597656 32.851562 292.050781 39.867188 299.25 47.070312 C 309.609375 57.621094 319.96875 68.363281 328.558594 80.433594 C 329.1875 81.320312 330.324219 83.339844 330.957031 84.351562 C 330.324219 83.339844 329.316406 81.382812 328.621094 80.371094 C 320.410156 68.113281 309.988281 57.371094 299.628906 46.753906 Z M 295.273438 50.925781 C 318.894531 74.558594 328.496094 89.027344 327.738281 91.746094 L 327.738281 91.808594 L 325.777344 93.765625 L 325.652344 93.261719 C 324.578125 90.292969 321.925781 86.183594 317.566406 80.625 C 311.566406 72.914062 302.789062 63.246094 292.871094 53.324219 C 282.957031 43.40625 273.292969 34.621094 265.585938 28.617188 C 260.03125 24.257812 255.925781 21.667969 252.957031 20.53125 L 252.449219 20.339844 L 254.410156 18.382812 L 254.472656 18.382812 C 257.1875 17.6875 271.652344 27.289062 295.273438 50.925781 Z M 260.28125 21.605469 C 260.21875 21.605469 260.21875 21.539062 260.28125 21.605469 C 259.207031 20.910156 258.132812 20.277344 257.0625 19.769531 L 255.734375 21.097656 C 256.808594 21.667969 257.753906 22.234375 258.957031 22.992188 Z M 270.703125 29.3125 C 269.503906 28.363281 268.304688 27.417969 267.167969 26.46875 C 265.777344 25.394531 264.515625 24.511719 263.1875 23.5 L 261.796875 24.890625 C 263.753906 26.28125 265.652344 27.734375 267.480469 29.25 C 268.113281 28.746094 269.125 28.746094 270.703125 29.3125 Z M 315.546875 77.023438 C 318.894531 81.128906 322.621094 85.867188 325.082031 90.417969 L 326.410156 89.089844 C 323.945312 84.289062 320.347656 79.867188 317 75.570312 Z M 309.292969 69.753906 C 310.683594 71.335938 312.007812 72.914062 313.335938 74.367188 L 314.789062 72.914062 C 313.96875 71.964844 313.148438 70.957031 312.199219 69.945312 C 311.316406 68.933594 310.429688 67.921875 309.421875 66.847656 C 309.925781 68.238281 309.863281 69.25 309.292969 69.753906 Z M 291.925781 54.019531 C 283.144531 45.363281 274.113281 36.894531 264.386719 29.3125 C 261.101562 26.847656 257.753906 24.382812 254.09375 22.550781 C 257.753906 24.445312 261.039062 26.976562 264.261719 29.503906 C 273.863281 37.210938 282.828125 45.679688 291.546875 54.398438 C 300.261719 63.121094 308.726562 72.09375 316.429688 81.761719 C 318.957031 84.984375 321.484375 88.269531 323.441406 91.871094 C 321.546875 88.207031 319.148438 84.859375 316.621094 81.570312 C 309.105469 71.839844 300.640625 62.804688 291.925781 54.019531 Z M 135.667969 186.152344 C 136.109375 187.351562 134.34375 188.238281 133.207031 187.796875 C 119.941406 182.296875 105.414062 183.941406 93.414062 192.597656 C 91.203125 194.175781 88.171875 193.925781 86.214844 191.964844 L 106.992188 171.175781 C 107.183594 170.988281 107.5625 170.609375 108.382812 170.859375 C 108.824219 170.988281 109.203125 171.238281 109.582031 171.554688 C 111.414062 173.449219 119.121094 181.160156 123.480469 181.160156 C 131.625 181.160156 161.121094 160.308594 161.121094 160.308594 C 161.121094 160.308594 154.425781 165.617188 138.132812 179.203125 C 136.679688 180.464844 134.847656 184.128906 135.667969 186.152344 Z M 112.679688 177.433594 C 111.921875 176.421875 111.164062 175.410156 110.339844 174.460938 C 109.898438 173.957031 109.394531 173.324219 108.636719 173.136719 C 107.878906 172.945312 106.929688 173.136719 106.363281 173.765625 C 104.53125 175.472656 102.761719 177.242188 100.992188 179.074219 C 97.457031 182.675781 93.984375 186.34375 90.761719 190.261719 C 96.574219 185.457031 102.003906 180.085938 107.183594 174.652344 C 107.625 174.144531 108.511719 174.082031 109.015625 174.523438 L 109.710938 175.09375 C 110.71875 175.914062 111.667969 176.738281 112.679688 177.433594 Z M 84.382812 258.191406 C 79.078125 251.996094 75.792969 244.730469 74.53125 236.578125 C 74.023438 233.417969 72.761719 230.007812 70.675781 226.53125 L 65.054688 219.199219 L 64.234375 218.253906 C 63.601562 217.558594 63.351562 216.800781 63.414062 216.042969 C 63.539062 214.335938 65.246094 212.945312 65.308594 212.882812 L 65.433594 212.753906 L 79.835938 198.347656 C 81.160156 197.019531 83.371094 197.019531 84.699219 198.410156 C 85.332031 199.042969 85.394531 199.992188 84.824219 200.625 C 63.222656 225.265625 84.382812 258.191406 84.382812 258.191406 Z M 80.59375 200.054688 C 76.296875 203.910156 72.066406 207.953125 67.898438 211.933594 C 67.898438 211.933594 66.636719 213.136719 66.636719 213.136719 C 66.257812 213.578125 65.6875 214.019531 65.308594 214.523438 C 64.296875 216.042969 64.867188 218.191406 66.320312 219.074219 C 67.519531 219.894531 69.539062 221.730469 67.582031 219.074219 C 67.265625 218.632812 66.824219 218.125 66.570312 217.746094 C 65.941406 216.738281 66.066406 215.472656 66.886719 214.589844 C 67.265625 214.210938 68.277344 213.136719 68.71875 212.691406 C 72.699219 208.648438 76.804688 204.351562 80.59375 200.054688 Z M 64.675781 222.109375 C 63.984375 221.351562 62.78125 221.285156 62.085938 221.980469 L 61.960938 222.109375 L 64.742188 225.773438 L 61.078125 222.992188 L 60.949219 223.117188 C 60.699219 223.371094 60.699219 223.75 60.949219 223.941406 L 64.992188 227.984375 C 65.246094 228.238281 65.625 228.238281 65.8125 227.984375 L 66.761719 227.035156 C 67.394531 226.40625 67.457031 225.332031 66.824219 224.574219 Z M 123.792969 281.253906 L 121.203125 278.980469 C 120.445312 278.347656 119.375 278.347656 118.742188 278.980469 L 121.394531 282.457031 L 117.921875 279.800781 L 117.792969 279.925781 C 117.542969 280.179688 117.542969 280.558594 117.792969 280.8125 L 122.027344 285.046875 C 122.277344 285.296875 122.65625 285.296875 122.910156 285.046875 L 123.984375 283.972656 C 124.679688 283.214844 124.617188 282.011719 123.792969 281.253906 Z M 113.5625 170.480469 C 112.742188 171.300781 112.804688 172.566406 113.5625 173.261719 L 116.152344 175.535156 C 116.910156 176.167969 118.046875 176.105469 118.742188 175.410156 L 119.753906 174.398438 C 120.003906 174.144531 120.003906 173.765625 119.753906 173.515625 L 115.582031 169.34375 C 115.332031 169.089844 114.953125 169.089844 114.699219 169.34375 L 117.480469 173.007812 L 113.816406 170.226562 Z M 183.859375 181.855469 C 184.113281 182.234375 184.425781 182.613281 184.679688 182.992188 C 175.144531 194.113281 167.691406 203.023438 167.058594 203.71875 C 166.742188 204.226562 164.53125 207.699219 160.238281 208.207031 C 158.910156 208.332031 157.585938 208.207031 156.195312 207.761719 C 154.996094 207.382812 153.921875 208.585938 154.488281 209.722656 C 161.691406 224.320312 159.542969 242.390625 148.109375 254.96875 C 147.667969 255.472656 147.667969 256.167969 148.109375 256.609375 L 152.785156 261.285156 L 147.730469 257.746094 C 146.910156 257.179688 145.835938 257.242188 145.140625 257.875 C 129.730469 271.648438 106.234375 271.523438 90.953125 257.558594 C 90.445312 257.117188 89.75 257.117188 89.308594 257.558594 L 85.773438 261.097656 L 88.300781 257.179688 C 88.804688 256.421875 88.742188 255.347656 88.109375 254.652344 C 74.277344 239.234375 74.402344 215.664062 88.363281 200.371094 C 88.804688 199.863281 88.804688 199.167969 88.363281 198.726562 L 83.941406 194.304688 L 88.804688 197.652344 C 89.625 198.222656 90.699219 198.160156 91.394531 197.527344 C 103.710938 186.53125 121.140625 184.382812 135.480469 191.082031 C 136.867188 191.714844 138.382812 190.511719 138.003906 188.996094 C 137.753906 187.859375 137.625 186.722656 137.753906 185.648438 C 138.195312 181.351562 141.667969 179.136719 142.238281 178.820312 C 142.996094 178.191406 152.910156 169.847656 164.910156 159.550781 C 165.226562 159.863281 165.542969 160.246094 165.796875 160.558594 C 153.351562 171.238281 143.183594 179.769531 143.058594 179.960938 L 142.933594 180.023438 C 142.867188 180.023438 139.519531 181.980469 139.078125 185.835938 C 138.699219 189.25 140.65625 193.101562 144.890625 197.273438 C 145.519531 197.84375 146.152344 198.410156 146.722656 198.980469 C 146.722656 198.980469 146.785156 199.042969 146.847656 199.042969 C 146.910156 199.042969 146.910156 199.105469 146.910156 199.167969 C 147.480469 199.800781 148.046875 200.371094 148.617188 201.003906 C 152.847656 205.234375 156.699219 207.195312 160.046875 206.816406 C 163.902344 206.4375 165.859375 203.023438 165.859375 202.960938 L 165.921875 202.835938 C 166.109375 202.707031 173.878906 193.417969 183.859375 181.855469 Z M 147.605469 201.886719 C 147.039062 201.316406 146.40625 200.625 145.835938 199.992188 C 145.140625 199.359375 144.511719 198.789062 143.941406 198.222656 C 128.34375 184.574219 104.46875 185.394531 89.878906 200.6875 C 75.792969 215.472656 75.539062 238.917969 89.246094 253.957031 C 104.339844 270.574219 130.171875 271.015625 145.835938 255.28125 C 160.488281 240.6875 161.058594 217.242188 147.605469 201.886719 Z M 143.5625 253.007812 C 139.394531 256.800781 134.46875 259.515625 129.164062 261.160156 C 134.34375 259.390625 139.078125 256.355469 142.742188 252.1875 C 132.699219 261.347656 117.730469 264.257812 105.097656 259.199219 C 100.929688 257.558594 97.015625 255.15625 93.605469 252.1875 C 96.636719 255.597656 100.425781 258.378906 104.65625 260.210938 C 105.476562 260.589844 106.300781 260.90625 107.121094 261.222656 C 106.300781 260.96875 105.414062 260.652344 104.59375 260.339844 C 100.300781 258.632812 96.257812 256.167969 92.71875 253.070312 C 95.878906 256.609375 99.792969 259.453125 104.152344 261.347656 C 104.972656 261.730469 105.792969 262.042969 106.613281 262.359375 C 105.792969 262.109375 104.972656 261.792969 104.089844 261.476562 C 99.605469 259.707031 95.5 257.179688 91.835938 253.957031 C 95.058594 257.558594 99.164062 260.527344 103.648438 262.488281 C 117.164062 268.617188 134.40625 265.140625 144.257812 253.957031 C 140.027344 257.875 134.910156 260.71875 129.480469 262.359375 C 134.972656 260.402344 139.835938 257.304688 143.5625 253.007812 Z M 141.164062 204.667969 C 153.859375 217.367188 153.859375 237.96875 141.164062 250.605469 C 128.46875 263.308594 107.878906 263.308594 95.246094 250.605469 C 82.613281 237.90625 82.550781 217.304688 95.246094 204.667969 C 107.878906 191.964844 128.46875 191.964844 141.164062 204.667969 Z M 139.585938 206.246094 C 127.773438 194.429688 108.574219 194.429688 96.761719 206.246094 C 84.953125 218.0625 84.953125 237.273438 96.761719 249.089844 C 108.574219 260.90625 127.773438 260.90625 139.585938 249.089844 C 151.394531 237.210938 151.394531 218.0625 139.585938 206.246094 Z M 92.78125 202.203125 C 96.953125 198.410156 101.878906 195.695312 107.183594 194.050781 C 102.003906 195.820312 97.265625 198.855469 93.605469 203.023438 C 103.648438 193.863281 118.617188 190.953125 131.246094 196.011719 C 135.414062 197.652344 139.332031 200.054688 142.742188 203.023438 C 139.710938 199.613281 135.921875 196.832031 131.6875 195 C 130.867188 194.621094 130.046875 194.304688 129.226562 193.988281 C 130.046875 194.242188 130.929688 194.558594 131.753906 194.871094 C 136.046875 196.578125 140.089844 199.042969 143.625 202.140625 C 140.46875 198.601562 136.550781 195.757812 132.195312 193.863281 C 131.375 193.484375 130.550781 193.167969 129.730469 192.851562 C 130.550781 193.101562 131.375 193.417969 132.257812 193.734375 C 136.742188 195.503906 140.847656 198.03125 144.511719 201.253906 C 141.289062 197.652344 137.183594 194.683594 132.699219 192.722656 C 119.183594 186.59375 101.941406 190.070312 92.089844 201.253906 C 96.320312 197.335938 101.4375 194.492188 106.867188 192.851562 C 101.4375 194.808594 96.574219 197.96875 92.78125 202.203125 Z M 133.835938 277.84375 C 132.320312 279.296875 130.238281 282.140625 128.089844 280.054688 C 127.835938 279.738281 120.382812 274.050781 119.816406 273.609375 C 117.605469 272.28125 115.269531 271.207031 112.804688 270.449219 C 110.40625 269.691406 107.816406 269.5625 105.414062 268.933594 C 100.613281 267.667969 95.941406 265.898438 91.519531 263.5625 C 95.371094 266.847656 100.109375 269.183594 105.097656 270.257812 C 107.5 270.890625 110.027344 271.019531 112.425781 271.777344 C 114.761719 272.472656 116.972656 273.546875 119.121094 274.808594 C 119.058594 274.746094 127.457031 281.191406 127.207031 281.128906 C 129.226562 283.148438 132.070312 281.949219 133.648438 279.992188 C 133.898438 279.738281 134.59375 279.042969 134.847656 278.789062 C 135.984375 277.589844 142.046875 271.777344 142.933594 270.574219 C 144.382812 268.867188 146.027344 266.972656 147.417969 265.265625 C 145.078125 267.226562 142.617188 269.25 140.40625 271.332031 C 140.40625 271.269531 133.835938 277.84375 133.835938 277.84375 Z M 259.839844 169.28125 C 259.585938 169.027344 259.207031 169.027344 258.957031 169.28125 L 254.789062 173.449219 C 254.535156 173.703125 254.535156 174.082031 254.789062 174.335938 L 255.796875 175.347656 C 256.492188 176.042969 257.628906 176.105469 258.386719 175.472656 L 260.976562 173.199219 C 261.796875 172.503906 261.796875 171.238281 260.976562 170.417969 L 260.660156 170.101562 L 256.996094 172.882812 Z M 279.417969 250.605469 C 266.722656 263.308594 246.132812 263.308594 233.503906 250.605469 C 220.808594 237.90625 220.808594 217.304688 233.503906 204.667969 C 246.199219 191.964844 266.789062 191.964844 279.417969 204.667969 C 292.113281 217.367188 292.113281 237.90625 279.417969 250.605469 Z M 277.839844 206.246094 C 266.03125 194.429688 246.828125 194.429688 235.019531 206.246094 C 223.207031 218.0625 223.207031 237.273438 235.019531 249.089844 C 246.828125 260.90625 266.03125 260.90625 277.839844 249.089844 C 289.652344 237.210938 289.652344 218.0625 277.839844 206.246094 Z M 244.933594 192.976562 C 244.113281 193.292969 243.292969 193.609375 242.472656 193.988281 C 238.113281 195.882812 234.195312 198.726562 231.039062 202.265625 C 234.578125 199.105469 238.554688 196.640625 242.914062 195 C 243.734375 194.683594 244.554688 194.367188 245.441406 194.113281 C 244.617188 194.429688 243.796875 194.746094 242.976562 195.125 C 238.746094 196.957031 234.957031 199.738281 231.921875 203.152344 C 235.335938 200.117188 239.25 197.714844 243.417969 196.136719 C 256.050781 191.082031 271.019531 194.050781 281.0625 203.152344 C 277.398438 198.980469 272.660156 195.945312 267.480469 194.175781 C 272.789062 195.820312 277.714844 198.539062 281.882812 202.328125 C 278.15625 198.03125 273.230469 194.9375 267.925781 193.101562 C 273.355469 194.808594 278.472656 197.589844 282.703125 201.507812 C 272.851562 190.324219 255.609375 186.847656 242.09375 192.976562 C 237.542969 194.9375 233.503906 197.90625 230.28125 201.507812 C 233.882812 198.285156 238.050781 195.695312 242.535156 193.988281 C 243.292969 193.546875 244.113281 193.230469 244.933594 192.976562 Z M 267.925781 262.296875 C 268.746094 261.980469 269.566406 261.664062 270.386719 261.285156 C 274.746094 259.390625 278.660156 256.546875 281.820312 253.007812 C 278.28125 256.167969 274.304688 258.632812 269.945312 260.273438 C 269.125 260.589844 268.304688 260.90625 267.417969 261.160156 C 268.238281 260.84375 269.0625 260.527344 269.882812 260.148438 C 274.113281 258.316406 277.902344 255.535156 280.933594 252.125 C 277.523438 255.15625 273.609375 257.558594 269.441406 259.136719 C 256.808594 264.191406 241.839844 261.222656 231.796875 252.125 C 235.460938 256.292969 240.199219 259.328125 245.375 261.097656 C 240.070312 259.453125 235.144531 256.738281 230.976562 252.945312 C 234.703125 257.242188 239.628906 260.339844 244.933594 262.171875 C 239.503906 260.464844 234.386719 257.683594 230.15625 253.765625 C 240.007812 264.953125 257.25 268.425781 270.765625 262.296875 C 275.3125 260.339844 279.355469 257.367188 282.578125 253.765625 C 278.976562 256.988281 274.808594 259.578125 270.324219 261.285156 C 269.566406 261.730469 268.746094 262.042969 267.925781 262.296875 Z M 261.796875 270.449219 C 259.335938 271.207031 256.996094 272.28125 254.789062 273.609375 C 254.21875 274.050781 246.703125 279.738281 246.511719 280.054688 C 244.367188 282.140625 242.21875 279.296875 240.765625 277.84375 C 240.765625 277.84375 234.261719 271.269531 234.261719 271.269531 C 232.050781 269.183594 229.523438 267.164062 227.25 265.203125 C 228.640625 266.910156 230.28125 268.804688 231.734375 270.511719 C 232.617188 271.710938 238.617188 277.527344 239.820312 278.726562 C 240.070312 278.980469 240.765625 279.675781 241.019531 279.925781 C 242.597656 281.824219 245.441406 283.085938 247.460938 281.066406 C 247.269531 281.128906 255.671875 274.746094 255.546875 274.746094 C 257.691406 273.480469 259.902344 272.40625 262.238281 271.710938 C 264.640625 270.953125 267.167969 270.828125 269.566406 270.195312 C 274.554688 269.121094 279.230469 266.785156 283.144531 263.496094 C 278.726562 265.835938 274.113281 267.605469 269.25 268.867188 C 266.789062 269.5625 264.261719 269.691406 261.796875 270.449219 Z M 256.746094 279.800781 L 253.269531 282.457031 L 255.925781 278.980469 C 255.230469 278.347656 254.15625 278.285156 253.460938 278.980469 L 250.871094 281.253906 C 250.050781 281.949219 249.988281 283.214844 250.746094 283.910156 L 251.820312 284.984375 C 252.070312 285.234375 252.449219 285.234375 252.703125 284.984375 L 256.933594 280.75 C 257.1875 280.496094 257.1875 280.117188 256.933594 279.863281 Z M 201.984375 232.34375 L 204.324219 229.691406 C 205.015625 228.933594 204.953125 227.796875 204.195312 227.035156 L 204.070312 226.910156 L 200.46875 229.628906 L 203.1875 226.027344 C 202.933594 225.773438 202.554688 225.773438 202.300781 226.027344 L 198.007812 230.324219 C 197.753906 230.574219 197.753906 230.953125 198.007812 231.207031 L 199.207031 232.40625 C 199.964844 233.230469 201.226562 233.167969 201.984375 232.34375 Z M 238.933594 186.152344 C 239.753906 184.128906 237.921875 180.464844 236.535156 179.328125 C 220.238281 165.742188 213.542969 160.433594 213.542969 160.433594 C 213.542969 160.433594 243.039062 181.285156 251.1875 181.285156 C 255.609375 181.285156 263.3125 173.578125 265.082031 171.683594 C 265.398438 171.367188 265.777344 171.050781 266.28125 170.988281 C 267.101562 170.796875 267.480469 171.113281 267.671875 171.300781 L 288.453125 192.09375 C 286.554688 193.988281 283.460938 194.304688 281.25 192.722656 C 269.3125 184.066406 254.789062 182.425781 241.460938 187.921875 C 240.261719 188.238281 238.492188 187.289062 238.933594 186.152344 Z M 261.925781 177.433594 C 262.933594 176.671875 263.945312 175.914062 264.894531 175.09375 L 265.585938 174.523438 C 266.09375 174.082031 266.976562 174.144531 267.417969 174.652344 C 272.660156 180.148438 278.03125 185.457031 283.839844 190.261719 C 280.621094 186.34375 277.144531 182.675781 273.609375 179.074219 C 271.839844 177.304688 270.007812 175.535156 268.238281 173.765625 C 267.671875 173.199219 266.722656 172.945312 265.964844 173.136719 C 265.207031 173.261719 264.703125 173.894531 264.261719 174.460938 C 263.441406 175.472656 262.683594 176.421875 261.925781 177.433594 Z M 202.617188 239.234375 L 202.113281 238.726562 C 201.921875 238.539062 201.671875 238.410156 201.734375 238.03125 C 201.796875 237.464844 202.175781 237.019531 202.554688 236.640625 C 205.839844 233.167969 211.332031 227.542969 211.460938 222.488281 C 211.207031 224.382812 210.195312 225.960938 209.121094 227.480469 C 206.847656 230.574219 204.195312 233.355469 201.417969 235.945312 C 200.40625 236.894531 199.902344 238.664062 201.164062 239.613281 C 201.164062 239.613281 201.671875 240.117188 201.671875 240.117188 C 207.292969 245.742188 212.976562 251.300781 219.039062 256.484375 C 213.796875 250.605469 208.300781 244.855469 202.617188 239.234375 Z M 171.355469 70.199219 L 172.238281 71.082031 C 163.835938 62.675781 91.078125 135.472656 99.542969 143.878906 L 98.65625 142.992188 C 96.445312 140.78125 99.855469 134.082031 106.300781 125.550781 L 79.519531 98.757812 C 76.363281 95.601562 76.171875 90.480469 79.078125 87.132812 C 90.257812 74.113281 102.636719 61.730469 115.835938 50.355469 C 119.183594 47.449219 124.300781 47.636719 127.457031 50.796875 L 154.300781 77.652344 C 162.574219 71.335938 169.144531 68.050781 171.355469 70.199219 Z M 153.164062 78.476562 L 126.445312 51.746094 C 123.792969 49.089844 119.5 48.902344 116.65625 51.367188 C 103.457031 62.675781 91.140625 75 80.023438 88.015625 C 77.5625 90.859375 77.75 95.15625 80.402344 97.8125 L 107.058594 124.476562 C 118.488281 109.628906 138.320312 89.785156 153.164062 78.476562 Z M 64.363281 87.890625 C 60.003906 93.453125 57.414062 97.558594 56.277344 100.527344 L 56.085938 101.035156 L 54.128906 99.074219 L 54.128906 99.011719 C 53.371094 96.296875 62.972656 81.824219 86.59375 58.191406 C 110.214844 34.558594 124.679688 24.953125 127.394531 25.710938 L 127.457031 25.710938 L 129.414062 27.671875 L 128.910156 27.859375 C 125.941406 28.933594 121.835938 31.585938 116.277344 35.949219 C 108.574219 41.949219 98.910156 50.734375 88.992188 60.65625 C 79.078125 70.578125 70.363281 80.246094 64.363281 87.890625 Z M 121.648438 28.871094 L 123.035156 30.261719 C 124.171875 29.503906 125.121094 28.933594 126.257812 28.363281 L 124.929688 27.039062 C 123.792969 27.542969 122.722656 28.175781 121.648438 28.871094 Z M 111.226562 36.578125 C 112.679688 36.136719 113.816406 36.011719 114.445312 36.515625 C 116.277344 35.0625 118.171875 33.609375 120.066406 32.21875 L 118.679688 30.828125 C 117.289062 31.777344 116.027344 32.726562 114.699219 33.800781 C 113.5625 34.683594 112.363281 35.632812 111.226562 36.578125 Z M 69.730469 77.210938 C 68.847656 78.222656 67.960938 79.234375 67.140625 80.179688 L 68.59375 81.636719 C 69.855469 80.179688 71.183594 78.664062 72.570312 77.085938 L 72.507812 77.023438 C 72.128906 76.390625 72.128906 75.441406 72.507812 74.179688 C 71.433594 75.1875 70.550781 76.261719 69.730469 77.210938 Z M 56.78125 97.75 C 59.246094 93.199219 62.972656 88.460938 66.320312 84.351562 L 64.929688 82.960938 C 61.519531 87.195312 57.980469 91.683594 55.519531 96.484375 Z M 286.367188 257.117188 L 288.894531 261.035156 L 285.355469 257.496094 C 284.914062 257.050781 284.15625 257.050781 283.714844 257.496094 C 268.429688 271.460938 244.933594 271.585938 229.523438 257.8125 C 228.828125 257.179688 227.691406 257.117188 226.933594 257.683594 L 221.882812 261.222656 L 226.554688 256.546875 C 226.996094 256.105469 226.996094 255.347656 226.554688 254.902344 C 215.058594 242.328125 212.976562 224.257812 220.175781 209.660156 C 220.746094 208.523438 219.671875 207.320312 218.46875 207.699219 C 217.082031 208.144531 215.691406 208.269531 214.429688 208.144531 C 210.132812 207.699219 207.921875 204.226562 207.605469 203.65625 C 206.46875 202.328125 182.089844 173.261719 164.40625 153.671875 C 146.34375 133.703125 132.449219 118.03125 132.195312 117.78125 C 132.195312 117.78125 147.351562 132.757812 165.417969 152.722656 C 183.480469 172.691406 208.492188 202.457031 208.742188 202.773438 L 208.808594 202.898438 C 208.808594 202.960938 210.765625 206.308594 214.617188 206.753906 C 218.027344 207.132812 221.882812 205.171875 226.050781 200.9375 C 226.617188 200.308594 227.1875 199.675781 227.753906 199.105469 C 227.753906 199.105469 227.816406 199.042969 227.816406 198.980469 C 227.816406 198.980469 227.882812 198.917969 227.945312 198.917969 C 228.574219 198.347656 229.144531 197.78125 229.777344 197.210938 C 234.007812 192.976562 235.964844 189.121094 235.585938 185.773438 C 235.207031 181.917969 231.796875 179.960938 231.734375 179.960938 L 231.609375 179.894531 C 231.292969 179.644531 201.542969 154.683594 181.585938 136.546875 C 161.628906 118.476562 146.722656 103.371094 146.722656 103.371094 C 146.972656 103.625 162.574219 117.464844 182.53125 135.535156 C 202.113281 153.292969 231.164062 177.621094 232.492188 178.757812 C 232.996094 179.074219 236.472656 181.285156 236.976562 185.582031 C 237.101562 186.65625 237.039062 187.796875 236.722656 188.933594 C 236.34375 190.449219 237.859375 191.714844 239.25 191.019531 C 253.585938 184.320312 271.019531 186.46875 283.335938 197.464844 C 284.03125 198.09375 285.105469 198.160156 285.925781 197.589844 L 290.789062 194.242188 L 286.367188 198.664062 C 285.925781 199.105469 285.925781 199.863281 286.367188 200.308594 C 300.324219 215.597656 300.453125 239.167969 286.621094 254.589844 C 285.925781 255.28125 285.863281 256.355469 286.367188 257.117188 Z M 285.355469 253.957031 C 299.0625 238.851562 298.808594 215.410156 284.726562 200.6875 C 270.136719 185.394531 246.261719 184.574219 230.660156 198.222656 C 230.09375 198.789062 229.398438 199.421875 228.765625 199.992188 C 228.132812 200.6875 227.566406 201.316406 226.996094 201.886719 C 213.542969 217.242188 214.175781 240.6875 228.765625 255.28125 C 244.492188 271.015625 270.261719 270.511719 285.355469 253.957031 Z M 83.054688 54.398438 C 91.773438 45.679688 100.742188 37.210938 110.40625 29.503906 C 113.625 26.976562 116.910156 24.445312 120.574219 22.550781 C 116.910156 24.382812 113.5625 26.847656 110.277344 29.3125 C 100.488281 36.894531 91.457031 45.363281 82.742188 54.019531 C 74.023438 62.804688 65.5625 71.839844 57.980469 81.570312 C 55.519531 84.859375 53.054688 88.207031 51.160156 91.871094 C 53.117188 88.269531 55.644531 84.984375 58.171875 81.761719 C 65.878906 72.09375 74.339844 63.121094 83.054688 54.398438 Z M 69.414062 84.476562 C 82.742188 68.933594 97.265625 54.460938 112.742188 41.128906 C 116.40625 38.035156 120.320312 34.9375 124.238281 32.21875 C 125.121094 31.652344 126.699219 30.703125 127.519531 30.261719 C 126.890625 30.578125 124.679688 31.902344 124.171875 32.15625 C 120.132812 34.808594 116.152344 37.78125 112.488281 40.875 C 96.824219 54.019531 82.234375 68.617188 69.097656 84.289062 C 66.191406 87.765625 63.289062 91.554688 60.824219 95.347656 C 60.128906 96.359375 59.121094 98.253906 58.488281 99.328125 C 59.121094 98.316406 60.257812 96.296875 60.886719 95.410156 C 63.539062 91.617188 66.507812 87.953125 69.414062 84.476562 Z M 313.527344 222.992188 L 309.863281 225.773438 L 312.640625 222.109375 L 312.515625 221.980469 C 311.757812 221.222656 310.558594 221.285156 309.925781 222.109375 L 307.714844 224.636719 C 307.082031 225.332031 307.082031 226.40625 307.777344 227.101562 L 308.726562 228.046875 C 308.976562 228.300781 309.355469 228.300781 309.546875 228.046875 L 313.589844 224.003906 C 313.839844 223.75 313.839844 223.371094 313.589844 223.183594 Z M 57.035156 80.625 C 52.675781 86.183594 50.085938 90.292969 48.949219 93.261719 L 48.761719 93.765625 L 46.804688 91.808594 L 46.804688 91.746094 C 46.046875 89.027344 55.644531 74.558594 79.265625 50.925781 C 102.890625 27.289062 117.351562 17.6875 120.066406 18.445312 L 120.132812 18.445312 L 122.089844 20.402344 L 121.582031 20.59375 C 118.617188 21.667969 114.511719 24.320312 108.953125 28.679688 C 101.246094 34.683594 91.582031 43.46875 81.667969 53.386719 C 71.75 63.308594 63.097656 72.914062 57.035156 80.625 Z M 114.382812 21.605469 L 115.773438 22.992188 C 116.910156 22.234375 117.859375 21.667969 118.996094 21.097656 L 117.667969 19.769531 C 116.46875 20.277344 115.457031 20.910156 114.382812 21.605469 C 114.382812 21.539062 114.382812 21.605469 114.382812 21.605469 Z M 103.898438 29.3125 C 105.476562 28.746094 106.550781 28.746094 107.121094 29.25 C 109.015625 27.734375 110.910156 26.28125 112.804688 24.890625 L 111.414062 23.5 C 110.027344 24.445312 108.761719 25.394531 107.4375 26.46875 C 106.234375 27.417969 105.035156 28.363281 103.898438 29.3125 Z M 62.402344 69.945312 C 61.519531 70.957031 60.636719 71.964844 59.8125 72.914062 L 61.265625 74.367188 C 62.53125 72.851562 63.855469 71.335938 65.308594 69.753906 C 64.804688 69.25 64.742188 68.238281 65.183594 66.847656 C 64.234375 67.921875 63.289062 68.933594 62.402344 69.945312 Z M 49.519531 90.417969 C 51.980469 85.867188 55.707031 81.128906 59.054688 77.023438 L 57.667969 75.632812 C 54.257812 79.867188 50.71875 84.351562 48.253906 89.15625 Z M 96.761719 141.730469 L 60.570312 105.519531 L 60.570312 105.457031 C 59.8125 102.742188 69.414062 88.269531 93.035156 64.636719 C 116.65625 41.003906 131.121094 31.398438 133.835938 32.15625 L 133.898438 32.15625 L 170.089844 68.363281 L 169.078125 68.238281 C 167.375 68.050781 163.523438 69.125 154.804688 75.695312 L 154.554688 75.882812 L 127.710938 49.027344 C 124.550781 45.867188 119.375 45.679688 115.960938 48.648438 C 102.003906 60.65625 88.992188 73.671875 77.246094 87.386719 C 74.339844 90.796875 74.46875 95.980469 77.6875 99.140625 L 104.46875 125.929688 L 104.277344 126.183594 C 97.582031 135.09375 96.382812 139.074219 96.636719 140.78125 Z M 128.089844 35.253906 L 162.511719 69.691406 C 163.773438 68.996094 164.972656 68.429688 165.984375 68.050781 L 131.375 33.421875 C 130.171875 33.988281 129.101562 34.621094 128.089844 35.253906 Z M 117.414062 43.152344 C 119.246094 42.644531 120.636719 42.582031 121.332031 43.40625 C 121.332031 43.40625 124.109375 46.183594 124.109375 46.183594 C 126.761719 45.425781 152.28125 73.230469 154.617188 74.9375 C 156.195312 73.734375 157.835938 72.597656 159.417969 71.585938 L 125.121094 37.273438 C 123.730469 38.222656 122.46875 39.171875 121.140625 40.246094 C 119.878906 41.191406 118.679688 42.140625 117.414062 43.152344 Z M 76.109375 83.65625 C 75.226562 84.667969 74.339844 85.679688 73.519531 86.625 L 75.539062 88.648438 C 75.730469 88.332031 75.855469 88.015625 76.109375 87.765625 C 77.054688 86.4375 78.257812 85.238281 79.332031 83.910156 C 78.574219 83.277344 78.574219 82.015625 79.015625 80.371094 C 78.003906 81.507812 77.054688 82.582031 76.109375 83.65625 Z M 96.507812 137.496094 C 98.152344 133.324219 100.867188 129.597656 103.519531 125.996094 L 77.183594 99.582031 C 75.351562 97.75 74.339844 95.09375 74.53125 92.503906 L 71.371094 89.34375 C 67.960938 93.578125 64.425781 98.066406 61.960938 102.867188 Z M 71.308594 86.3125 C 84.636719 70.765625 99.164062 56.296875 114.636719 42.960938 C 118.300781 39.867188 122.214844 36.769531 126.132812 34.050781 C 127.015625 33.484375 128.59375 32.535156 129.414062 32.09375 C 128.785156 32.410156 126.574219 33.734375 126.066406 33.988281 C 122.027344 36.644531 118.046875 39.613281 114.382812 42.710938 C 98.71875 55.851562 84.128906 70.449219 70.992188 86.121094 C 68.085938 89.597656 65.183594 93.386719 62.71875 97.179688 C 62.023438 98.191406 61.015625 100.085938 60.382812 101.160156 C 61.015625 100.148438 62.152344 98.128906 62.78125 97.242188 C 65.371094 93.453125 68.339844 89.785156 71.308594 86.3125 Z M 85.773438 57.304688 C 94.488281 48.710938 103.394531 40.246094 112.929688 32.597656 C 115.015625 30.957031 117.542969 29.058594 119.6875 27.605469 C 120.445312 27.164062 122.277344 26.027344 122.972656 25.648438 C 122.40625 26.027344 120.195312 27.226562 119.625 27.542969 C 117.414062 28.996094 114.824219 30.765625 112.742188 32.410156 C 103.015625 39.929688 94.109375 48.332031 85.332031 56.992188 C 76.046875 66.46875 66.886719 76.136719 58.929688 86.816406 C 57.097656 89.28125 55.457031 91.871094 53.941406 94.589844 C 55.457031 91.933594 57.222656 89.40625 59.054688 86.941406 C 67.328125 76.390625 76.425781 66.722656 85.773438 57.304688 Z M 223.269531 199.421875 L 229.398438 193.292969 C 229.714844 192.976562 229.332031 192.472656 228.953125 192.722656 C 208.933594 204.035156 193.332031 170.542969 136.300781 116.261719 L 209.816406 198.855469 C 213.355469 202.898438 219.542969 203.152344 223.269531 199.421875 Z M 97.773438 26.214844 C 102.445312 22.296875 107.246094 18.382812 112.550781 15.285156 C 107.183594 18.253906 102.257812 22.046875 97.582031 25.964844 C 89.6875 32.535156 82.234375 39.550781 74.972656 46.753906 C 64.613281 57.371094 54.257812 68.113281 45.980469 80.433594 C 45.289062 81.382812 44.277344 83.402344 43.644531 84.414062 C 44.277344 83.402344 45.414062 81.382812 46.046875 80.496094 C 54.570312 68.363281 64.992188 57.6875 75.351562 47.132812 C 82.550781 39.867188 90.003906 32.851562 97.773438 26.214844 Z M 120.761719 76.261719 C 125.183594 80.6875 125.183594 87.953125 120.761719 92.441406 C 116.339844 96.925781 109.078125 96.863281 104.59375 92.441406 C 100.171875 88.015625 100.171875 80.75 104.59375 76.261719 C 109.078125 71.777344 116.339844 71.777344 120.761719 76.261719 Z M 105.035156 87.257812 C 105.542969 88.269531 106.234375 89.15625 107.308594 89.722656 C 105.289062 86.375 105.226562 82.265625 107.308594 78.917969 C 106.300781 79.488281 105.542969 80.371094 105.035156 81.382812 C 105.351562 80.246094 105.855469 79.171875 106.488281 78.097656 C 105.226562 78.855469 104.339844 79.992188 103.835938 81.320312 C 104.214844 79.929688 104.785156 78.539062 105.667969 77.273438 C 100.929688 80.308594 100.929688 88.269531 105.667969 91.304688 C 104.785156 90.039062 104.214844 88.710938 103.835938 87.320312 C 104.339844 88.648438 105.226562 89.785156 106.488281 90.542969 C 105.855469 89.40625 105.351562 88.394531 105.035156 87.257812 Z M 117.097656 88.710938 C 119.5625 86.246094 119.5625 82.328125 117.097656 79.867188 C 114.636719 77.402344 110.71875 77.402344 108.257812 79.867188 C 105.792969 82.328125 105.792969 86.246094 108.257812 88.710938 C 110.71875 91.175781 114.699219 91.175781 117.097656 88.710938 Z M 119.6875 77.273438 C 120.574219 78.539062 121.140625 79.867188 121.519531 81.320312 C 121.015625 79.992188 120.132812 78.855469 118.867188 78.097656 C 119.5 79.171875 120.003906 80.246094 120.320312 81.382812 C 119.816406 80.371094 119.121094 79.488281 118.046875 78.917969 C 120.066406 82.265625 120.132812 86.375 118.046875 89.722656 C 119.058594 89.15625 119.816406 88.269531 120.320312 87.257812 C 120.003906 88.394531 119.5 89.46875 118.867188 90.542969 C 120.132812 89.785156 121.015625 88.648438 121.519531 87.320312 C 121.140625 88.710938 120.574219 90.101562 119.6875 91.367188 C 124.425781 88.269531 124.425781 80.308594 119.6875 77.273438 Z M 125.121094 54.527344 L 149.816406 79.234375 C 136.679688 89.28125 119.753906 106.152344 109.648438 119.359375 L 85.015625 94.714844 C 82.488281 92.1875 82.109375 88.207031 84.257812 85.742188 C 93.855469 74.367188 104.59375 63.625 116.214844 53.769531 C 118.617188 51.621094 122.53125 51.933594 125.121094 54.527344 Z M 121.710938 75.253906 C 116.71875 70.261719 108.636719 70.261719 103.648438 75.253906 C 98.65625 80.246094 98.65625 88.332031 103.648438 93.324219 C 108.636719 98.316406 116.71875 98.316406 121.710938 93.324219 C 126.699219 88.394531 126.699219 80.246094 121.710938 75.253906 Z M 78.320312 49.660156 C 69.667969 58.445312 61.140625 67.417969 53.625 77.210938 C 51.160156 80.496094 48.699219 83.847656 46.804688 87.511719 C 48.761719 83.910156 51.289062 80.625 53.8125 77.402344 C 61.519531 67.734375 69.984375 58.761719 78.699219 50.039062 C 87.414062 41.320312 96.382812 32.851562 106.046875 25.207031 C 109.269531 22.679688 112.550781 20.148438 116.214844 18.253906 C 112.550781 20.085938 109.203125 22.550781 105.921875 25.015625 C 96.128906 32.535156 87.097656 41.003906 78.320312 49.660156 Z M 309.609375 219.199219 L 303.988281 226.53125 C 301.902344 230.007812 300.578125 233.417969 300.136719 236.578125 C 298.9375 244.730469 295.589844 251.996094 290.28125 258.191406 C 290.28125 258.191406 311.441406 225.265625 289.839844 200.625 C 289.273438 199.992188 289.335938 198.980469 289.96875 198.410156 C 291.355469 197.019531 293.503906 197.019531 294.832031 198.347656 L 309.230469 212.753906 L 309.355469 212.882812 C 309.355469 212.882812 311.0625 214.335938 311.25 216.042969 C 311.316406 216.800781 311.0625 217.496094 310.429688 218.253906 Z M 309.230469 214.523438 C 308.914062 214.019531 308.347656 213.578125 307.90625 213.136719 C 307.90625 213.136719 306.640625 211.933594 306.640625 211.933594 C 302.472656 207.953125 298.242188 203.910156 293.945312 200.054688 C 297.796875 204.351562 301.839844 208.585938 305.820312 212.753906 C 306.199219 213.199219 307.273438 214.210938 307.652344 214.652344 C 308.472656 215.472656 308.597656 216.800781 307.96875 217.8125 C 307.652344 218.191406 307.273438 218.695312 306.957031 219.136719 C 304.9375 221.792969 307.019531 219.960938 308.21875 219.136719 C 309.671875 218.191406 310.242188 216.042969 309.230469 214.523438 Z M 49.582031 73.167969 C 45.222656 78.726562 42.632812 82.835938 41.496094 85.804688 L 41.308594 86.3125 L 36.507812 81.507812 L 36.507812 81.445312 C 35.75 78.664062 45.351562 64.195312 68.972656 40.5625 C 92.59375 16.925781 107.058594 7.324219 109.773438 8.082031 L 109.835938 8.082031 L 114.636719 12.882812 L 114.132812 13.074219 C 111.164062 14.148438 107.058594 16.800781 101.5 21.160156 C 93.855469 27.164062 84.195312 35.949219 74.277344 45.867188 C 64.363281 55.789062 55.582031 65.457031 49.582031 73.167969 Z M 104.027344 11.242188 L 108.257812 15.472656 C 109.394531 14.714844 110.339844 14.148438 111.476562 13.578125 L 107.246094 9.34375 C 106.171875 9.914062 105.097656 10.546875 104.027344 11.242188 Z M 91.960938 20.277344 C 95.058594 19.265625 98.40625 19.203125 99.351562 22.046875 C 101.308594 20.464844 103.269531 18.949219 105.351562 17.496094 L 101.058594 13.199219 C 99.667969 14.148438 98.40625 15.09375 97.078125 16.167969 C 95.371094 17.496094 93.667969 18.886719 91.960938 20.277344 Z M 52.046875 59.582031 C 51.160156 60.59375 50.277344 61.601562 49.457031 62.550781 L 53.75 66.847656 C 55.015625 65.394531 56.339844 63.878906 57.730469 62.296875 C 57.855469 62.171875 57.917969 62.046875 58.046875 61.917969 C 55.519531 60.78125 54.824219 58.761719 56.085938 54.90625 C 54.824219 56.484375 53.371094 58.128906 52.046875 59.582031 Z M 42.066406 82.960938 C 44.152344 79.042969 47.371094 74.808594 50.339844 71.144531 C 50.78125 70.640625 51.160156 70.070312 51.601562 69.566406 L 47.308594 65.269531 C 43.898438 69.503906 40.359375 73.988281 37.898438 78.792969 Z M 42.066406 82.960938 "/><g clip-rule="nonzero" clip-path="url(#460932d40b)"><path style=" stroke:none;fill-rule:nonzero;fill:#000000;fill-opacity:1;" d="M 132.554688 208.042969 L 119.714844 208.042969 C 117.152344 208.042969 115.070312 205.964844 115.070312 203.398438 L 115.070312 179.613281 C 115.070312 177.050781 117.152344 174.972656 119.714844 174.972656 L 132.554688 174.972656 C 135.117188 174.972656 137.199219 177.050781 137.199219 179.613281 L 137.199219 203.398438 C 137.210938 205.964844 135.128906 208.042969 132.554688 208.042969 Z M 132.554688 208.042969 "/></g><g clip-rule="nonzero" clip-path="url(#3629647015)"><path style=" stroke:none;fill-rule:nonzero;fill:#000000;fill-opacity:1;" d="M 255.285156 208.042969 L 242.445312 208.042969 C 239.882812 208.042969 237.800781 205.964844 237.800781 203.398438 L 237.800781 179.613281 C 237.800781 177.050781 239.882812 174.972656 242.445312 174.972656 L 255.285156 174.972656 C 257.847656 174.972656 259.929688 177.050781 259.929688 179.613281 L 259.929688 203.398438 C 259.929688 205.964844 257.847656 208.042969 255.285156 208.042969 Z M 255.285156 208.042969 "/></g><g clip-rule="nonzero" clip-path="url(#7888c1991c)"><path style=" stroke:none;fill-rule:nonzero;fill:#000000;fill-opacity:1;" d="M 262.492188 165.039062 L 262.492188 185.882812 C 262.492188 191.199219 257.898438 195.511719 252.214844 195.511719 L 122.785156 195.511719 C 117.101562 195.511719 112.507812 191.199219 112.507812 185.882812 L 112.507812 165.039062 C 112.507812 158.566406 114.882812 152.28125 119.242188 147.261719 L 128.621094 136.441406 L 141.191406 104.957031 C 142.597656 101.410156 146 98.929688 149.886719 98.613281 C 161.464844 97.644531 174.007812 97.054688 187.417969 97.042969 C 200.871094 97.042969 213.476562 97.644531 225.101562 98.613281 C 229 98.929688 232.390625 101.421875 233.796875 104.957031 C 237.933594 115.3125 242.125 125.8125 246.378906 136.457031 L 255.757812 147.273438 C 260.117188 152.292969 262.492188 158.578125 262.492188 165.039062 Z M 262.492188 165.039062 "/></g><path style=" stroke:none;fill-rule:nonzero;fill:#ffffff;fill-opacity:1;" d="M 135.4375 133.480469 L 145.007812 106.335938 C 145.808594 104.046875 147.878906 102.425781 150.265625 102.214844 C 162.574219 101.128906 175.070312 100.585938 187.417969 100.585938 L 187.488281 100.585938 C 199.867188 100.585938 212.390625 101.140625 224.722656 102.214844 C 227.109375 102.425781 229.179688 104.046875 229.980469 106.335938 L 239.550781 133.480469 Z M 135.4375 133.480469 "/><path style=" stroke:none;fill-rule:nonzero;fill:#ffffff;fill-opacity:1;" d="M 126.292969 153.109375 C 123.789062 152.152344 121.792969 152.707031 120.164062 153.972656 C 118.734375 155.082031 118.699219 157.078125 118.757812 158.8125 C 118.910156 162.652344 119.242188 166.878906 122.136719 169.597656 C 124.582031 171.898438 140.105469 175.253906 144.167969 174.960938 C 144.816406 174.910156 145.527344 174.828125 146 174.414062 C 146.921875 173.625 146.933594 172.007812 146.835938 170.980469 C 146.707031 169.527344 146.460938 167.484375 145.574219 166.289062 C 144.355469 164.671875 142.691406 163.394531 141.027344 162.179688 C 137.683594 159.769531 134.199219 157.527344 130.59375 155.484375 C 129.425781 154.808594 127.925781 153.722656 126.292969 153.109375 Z M 126.292969 153.109375 "/><path style=" stroke:none;fill-rule:nonzero;fill:#ffffff;fill-opacity:1;" d="M 248.707031 153.109375 C 251.210938 152.152344 253.207031 152.707031 254.835938 153.972656 C 256.265625 155.082031 256.300781 157.078125 256.242188 158.8125 C 256.089844 162.652344 255.757812 166.878906 252.863281 169.597656 C 250.417969 171.898438 234.894531 175.253906 230.832031 174.960938 C 230.183594 174.910156 229.472656 174.828125 229 174.414062 C 228.078125 173.625 228.066406 172.007812 228.164062 170.980469 C 228.292969 169.527344 228.539062 167.484375 229.425781 166.289062 C 230.644531 164.671875 232.308594 163.394531 233.972656 162.179688 C 237.316406 159.769531 240.800781 157.527344 244.40625 155.484375 C 245.574219 154.808594 247.074219 153.722656 248.707031 153.109375 Z M 248.707031 153.109375 "/><path style=" stroke:none;fill-rule:nonzero;fill:#ffffff;fill-opacity:1;" d="M 209.699219 185.1875 L 165.300781 185.1875 C 163.707031 185.1875 162.300781 184.195312 161.851562 182.753906 L 157.671875 169.042969 C 157.019531 166.902344 158.734375 164.765625 161.121094 164.765625 L 213.867188 164.765625 C 216.242188 164.765625 217.96875 166.902344 217.316406 169.042969 L 213.136719 182.753906 C 212.699219 184.195312 211.292969 185.1875 209.699219 185.1875 Z M 209.699219 185.1875 "/><path style=" stroke:none;fill-rule:nonzero;fill:#ffffff;fill-opacity:1;" d="M 131.609375 185.1875 C 131.609375 185.542969 131.574219 185.890625 131.5 186.238281 C 131.425781 186.585938 131.316406 186.921875 131.171875 187.25 C 131.027344 187.574219 130.851562 187.886719 130.640625 188.179688 C 130.429688 188.472656 130.191406 188.746094 129.925781 188.996094 C 129.65625 189.246094 129.367188 189.46875 129.054688 189.664062 C 128.738281 189.863281 128.40625 190.027344 128.058594 190.164062 C 127.710938 190.296875 127.351562 190.402344 126.980469 190.46875 C 126.609375 190.539062 126.234375 190.574219 125.855469 190.574219 C 125.480469 190.574219 125.105469 190.539062 124.734375 190.46875 C 124.363281 190.402344 124.003906 190.296875 123.65625 190.164062 C 123.304688 190.027344 122.976562 189.863281 122.660156 189.664062 C 122.347656 189.46875 122.054688 189.246094 121.789062 188.996094 C 121.523438 188.746094 121.285156 188.472656 121.074219 188.179688 C 120.863281 187.886719 120.6875 187.574219 120.542969 187.25 C 120.398438 186.921875 120.289062 186.585938 120.214844 186.238281 C 120.140625 185.890625 120.105469 185.542969 120.105469 185.1875 C 120.105469 184.832031 120.140625 184.484375 120.214844 184.136719 C 120.289062 183.789062 120.398438 183.453125 120.542969 183.125 C 120.6875 182.800781 120.863281 182.488281 121.074219 182.195312 C 121.285156 181.902344 121.523438 181.628906 121.789062 181.378906 C 122.054688 181.128906 122.347656 180.90625 122.660156 180.710938 C 122.976562 180.511719 123.304688 180.347656 123.65625 180.210938 C 124.003906 180.078125 124.363281 179.972656 124.734375 179.90625 C 125.105469 179.835938 125.480469 179.800781 125.855469 179.800781 C 126.234375 179.800781 126.609375 179.835938 126.980469 179.90625 C 127.351562 179.972656 127.710938 180.078125 128.058594 180.210938 C 128.40625 180.347656 128.738281 180.511719 129.054688 180.710938 C 129.367188 180.90625 129.65625 181.128906 129.925781 181.378906 C 130.191406 181.628906 130.429688 181.902344 130.640625 182.195312 C 130.851562 182.488281 131.027344 182.800781 131.171875 183.125 C 131.316406 183.453125 131.425781 183.789062 131.5 184.136719 C 131.574219 184.484375 131.609375 184.832031 131.609375 185.1875 Z M 131.609375 185.1875 "/><path style=" stroke:none;fill-rule:nonzero;fill:#ffffff;fill-opacity:1;" d="M 146.898438 185.1875 C 146.898438 185.542969 146.859375 185.890625 146.785156 186.238281 C 146.710938 186.585938 146.605469 186.921875 146.460938 187.25 C 146.3125 187.574219 146.136719 187.886719 145.925781 188.179688 C 145.71875 188.472656 145.480469 188.746094 145.210938 188.996094 C 144.945312 189.246094 144.652344 189.46875 144.339844 189.664062 C 144.027344 189.863281 143.695312 190.027344 143.34375 190.164062 C 142.996094 190.296875 142.636719 190.402344 142.265625 190.46875 C 141.894531 190.539062 141.523438 190.574219 141.144531 190.574219 C 140.765625 190.574219 140.390625 190.539062 140.019531 190.46875 C 139.652344 190.402344 139.292969 190.296875 138.941406 190.164062 C 138.59375 190.027344 138.261719 189.863281 137.949219 189.664062 C 137.632812 189.46875 137.34375 189.246094 137.074219 188.996094 C 136.808594 188.746094 136.570312 188.472656 136.359375 188.179688 C 136.148438 187.886719 135.972656 187.574219 135.828125 187.25 C 135.683594 186.921875 135.574219 186.585938 135.5 186.238281 C 135.425781 185.890625 135.390625 185.542969 135.390625 185.1875 C 135.390625 184.832031 135.425781 184.484375 135.5 184.136719 C 135.574219 183.789062 135.683594 183.453125 135.828125 183.125 C 135.972656 182.800781 136.148438 182.488281 136.359375 182.195312 C 136.570312 181.902344 136.808594 181.628906 137.074219 181.378906 C 137.34375 181.128906 137.632812 180.90625 137.949219 180.710938 C 138.261719 180.511719 138.59375 180.347656 138.941406 180.210938 C 139.292969 180.078125 139.652344 179.972656 140.019531 179.90625 C 140.390625 179.835938 140.765625 179.800781 141.144531 179.800781 C 141.523438 179.800781 141.894531 179.835938 142.265625 179.90625 C 142.636719 179.972656 142.996094 180.078125 143.34375 180.210938 C 143.695312 180.347656 144.027344 180.511719 144.339844 180.710938 C 144.652344 180.90625 144.945312 181.128906 145.210938 181.378906 C 145.480469 181.628906 145.71875 181.902344 145.925781 182.195312 C 146.136719 182.488281 146.3125 182.800781 146.460938 183.125 C 146.605469 183.453125 146.710938 183.789062 146.785156 184.136719 C 146.859375 184.484375 146.898438 184.832031 146.898438 185.1875 Z M 146.898438 185.1875 "/><path style=" stroke:none;fill-rule:nonzero;fill:#ffffff;fill-opacity:1;" d="M 240.957031 185.1875 C 240.957031 185.542969 240.917969 185.890625 240.84375 186.238281 C 240.773438 186.585938 240.664062 186.921875 240.519531 187.25 C 240.375 187.574219 240.195312 187.886719 239.988281 188.179688 C 239.777344 188.472656 239.539062 188.746094 239.269531 188.996094 C 239.003906 189.246094 238.714844 189.46875 238.398438 189.664062 C 238.085938 189.863281 237.753906 190.027344 237.40625 190.164062 C 237.054688 190.296875 236.695312 190.402344 236.324219 190.46875 C 235.953125 190.539062 235.582031 190.574219 235.203125 190.574219 C 234.824219 190.574219 234.449219 190.539062 234.082031 190.46875 C 233.710938 190.402344 233.351562 190.296875 233 190.164062 C 232.652344 190.027344 232.320312 189.863281 232.007812 189.664062 C 231.691406 189.46875 231.402344 189.246094 231.136719 188.996094 C 230.867188 188.746094 230.628906 188.472656 230.417969 188.179688 C 230.210938 187.886719 230.03125 187.574219 229.886719 187.25 C 229.742188 186.921875 229.632812 186.585938 229.558594 186.238281 C 229.488281 185.890625 229.449219 185.542969 229.449219 185.1875 C 229.449219 184.832031 229.488281 184.484375 229.558594 184.136719 C 229.632812 183.789062 229.742188 183.453125 229.886719 183.125 C 230.03125 182.800781 230.210938 182.488281 230.417969 182.195312 C 230.628906 181.902344 230.867188 181.628906 231.136719 181.378906 C 231.402344 181.128906 231.691406 180.90625 232.007812 180.710938 C 232.320312 180.511719 232.652344 180.347656 233 180.210938 C 233.351562 180.078125 233.710938 179.972656 234.082031 179.90625 C 234.449219 179.835938 234.824219 179.800781 235.203125 179.800781 C 235.582031 179.800781 235.953125 179.835938 236.324219 179.90625 C 236.695312 179.972656 237.054688 180.078125 237.40625 180.210938 C 237.753906 180.347656 238.085938 180.511719 238.398438 180.710938 C 238.714844 180.90625 239.003906 181.128906 239.269531 181.378906 C 239.539062 181.628906 239.777344 181.902344 239.988281 182.195312 C 240.195312 182.488281 240.375 182.800781 240.519531 183.125 C 240.664062 183.453125 240.773438 183.789062 240.84375 184.136719 C 240.917969 184.484375 240.957031 184.832031 240.957031 185.1875 Z M 240.957031 185.1875 "/><path style=" stroke:none;fill-rule:nonzero;fill:#ffffff;fill-opacity:1;" d="M 256.242188 185.1875 C 256.242188 185.542969 256.207031 185.890625 256.132812 186.238281 C 256.058594 186.585938 255.949219 186.921875 255.804688 187.25 C 255.660156 187.574219 255.484375 187.886719 255.273438 188.179688 C 255.0625 188.472656 254.824219 188.746094 254.558594 188.996094 C 254.289062 189.246094 254 189.46875 253.6875 189.664062 C 253.371094 189.863281 253.039062 190.027344 252.691406 190.164062 C 252.34375 190.296875 251.984375 190.402344 251.613281 190.46875 C 251.242188 190.539062 250.867188 190.574219 250.488281 190.574219 C 250.113281 190.574219 249.738281 190.539062 249.367188 190.46875 C 248.996094 190.402344 248.636719 190.296875 248.289062 190.164062 C 247.9375 190.027344 247.605469 189.863281 247.292969 189.664062 C 246.980469 189.46875 246.6875 189.246094 246.421875 188.996094 C 246.15625 188.746094 245.914062 188.472656 245.707031 188.179688 C 245.496094 187.886719 245.320312 187.574219 245.175781 187.25 C 245.03125 186.921875 244.921875 186.585938 244.847656 186.238281 C 244.773438 185.890625 244.738281 185.542969 244.738281 185.1875 C 244.738281 184.832031 244.773438 184.484375 244.847656 184.136719 C 244.921875 183.789062 245.03125 183.453125 245.175781 183.125 C 245.320312 182.800781 245.496094 182.488281 245.707031 182.195312 C 245.914062 181.902344 246.15625 181.628906 246.421875 181.378906 C 246.6875 181.128906 246.980469 180.90625 247.292969 180.710938 C 247.605469 180.511719 247.9375 180.347656 248.289062 180.210938 C 248.636719 180.078125 248.996094 179.972656 249.367188 179.90625 C 249.738281 179.835938 250.113281 179.800781 250.488281 179.800781 C 250.867188 179.800781 251.242188 179.835938 251.613281 179.90625 C 251.984375 179.972656 252.34375 180.078125 252.691406 180.210938 C 253.039062 180.347656 253.371094 180.511719 253.6875 180.710938 C 254 180.90625 254.289062 181.128906 254.558594 181.378906 C 254.824219 181.628906 255.0625 181.902344 255.273438 182.195312 C 255.484375 182.488281 255.660156 182.800781 255.804688 183.125 C 255.949219 183.453125 256.058594 183.789062 256.132812 184.136719 C 256.207031 184.484375 256.242188 184.832031 256.242188 185.1875 Z M 256.242188 185.1875 "/><path style=" stroke:none;fill-rule:nonzero;fill:#000000;fill-opacity:1;" d="M 245.445312 132.015625 L 245.445312 124.160156 C 245.445312 122.683594 246.496094 121.527344 247.808594 121.539062 L 259.265625 121.667969 C 260.648438 121.679688 261.785156 122.980469 261.785156 124.515625 L 261.785156 128.882812 C 261.785156 130.089844 261.074219 131.117188 260.046875 131.421875 L 248.585938 134.765625 C 247.015625 135.238281 245.445312 133.84375 245.445312 132.015625 Z M 245.445312 132.015625 "/><path style=" stroke:none;fill-rule:nonzero;fill:#000000;fill-opacity:1;" d="M 242.492188 131.304688 L 253.621094 129.039062 L 252.144531 133.503906 L 240.269531 138.191406 Z M 242.492188 131.304688 "/><path style=" stroke:none;fill-rule:nonzero;fill:#000000;fill-opacity:1;" d="M 129.554688 132.015625 L 129.554688 124.160156 C 129.554688 122.683594 128.503906 121.527344 127.191406 121.539062 L 115.734375 121.667969 C 114.351562 121.679688 113.214844 122.980469 113.214844 124.515625 L 113.214844 128.882812 C 113.214844 130.089844 113.925781 131.117188 114.953125 131.421875 L 126.414062 134.765625 C 127.984375 135.238281 129.554688 133.84375 129.554688 132.015625 Z M 129.554688 132.015625 "/><path style=" stroke:none;fill-rule:nonzero;fill:#000000;fill-opacity:1;" d="M 132.507812 131.304688 L 121.378906 129.039062 L 122.855469 133.503906 L 134.730469 138.191406 Z M 132.507812 131.304688 "/><path style=" stroke:none;fill-rule:nonzero;fill:#000000;fill-opacity:1;" d="M 212.675781 183.167969 L 163.414062 183.167969 C 162.761719 183.167969 162.230469 182.636719 162.230469 181.988281 C 162.230469 181.335938 162.761719 180.804688 163.414062 180.804688 L 212.675781 180.804688 C 213.324219 180.804688 213.855469 181.335938 213.855469 181.988281 C 213.855469 182.636719 213.324219 183.167969 212.675781 183.167969 Z M 212.675781 183.167969 "/><path style=" stroke:none;fill-rule:nonzero;fill:#000000;fill-opacity:1;" d="M 211.492188 188.636719 L 164.59375 188.636719 C 163.945312 188.636719 163.414062 188.105469 163.414062 187.457031 C 163.414062 186.804688 163.945312 186.273438 164.59375 186.273438 L 211.492188 186.273438 C 212.144531 186.273438 212.675781 186.804688 212.675781 187.457031 C 212.675781 188.105469 212.144531 188.636719 211.492188 188.636719 Z M 211.492188 188.636719 "/><path style=" stroke:none;fill-rule:nonzero;fill:#000000;fill-opacity:1;" d="M 208.894531 194.117188 L 167.191406 194.117188 C 166.542969 194.117188 166.011719 193.585938 166.011719 192.933594 C 166.011719 192.285156 166.542969 191.753906 167.191406 191.753906 L 208.894531 191.753906 C 209.542969 191.753906 210.074219 192.285156 210.074219 192.933594 C 210.074219 193.585938 209.542969 194.117188 208.894531 194.117188 Z M 208.894531 194.117188 "/></g></svg>